<?xml version="1.0" standalone="no"?>
<!DOCTYPE svg PUBLIC "-//W3C//DTD SVG 20010904//EN"
 "http://www.w3.org/TR/2001/REC-SVG-20010904/DTD/svg10.dtd">
<svg version="1.0" xmlns="http://www.w3.org/2000/svg"
 width="3655.000000pt" height="2053.000000pt" viewBox="0 0 3655.000000 2053.000000"
 preserveAspectRatio="xMidYMid meet">
<metadata>
Created by potrace 1.15, written by Peter Selinger 2001-2017
</metadata>
<g transform="translate(0.000000,2053.000000) scale(0.100000,-0.100000)"
fill="#000000" stroke="none">
<path d="M15040 16816 c0 -15 -30 -26 -75 -26 -16 0 -48 -7 -70 -15 -22 -8
-69 -14 -105 -15 -36 0 -81 -5 -100 -11 -19 -5 -55 -14 -80 -19 -90 -18 -174
-41 -209 -59 -20 -10 -55 -22 -77 -25 -25 -5 -51 -18 -65 -32 -14 -15 -34 -24
-53 -24 -17 -1 -47 -9 -66 -20 -19 -10 -46 -24 -59 -30 -13 -6 -39 -24 -58
-40 -19 -17 -44 -30 -57 -30 -13 0 -31 -9 -41 -20 -10 -12 -37 -29 -59 -39
-23 -10 -47 -25 -55 -34 -7 -10 -21 -17 -30 -17 -9 0 -43 -26 -76 -57 -33 -31
-70 -63 -83 -70 -64 -35 -422 -362 -422 -385 0 -5 -22 -36 -50 -69 -27 -33
-55 -70 -61 -82 -7 -12 -25 -37 -40 -55 -16 -18 -29 -39 -29 -46 0 -7 -9 -21
-20 -31 -11 -10 -20 -24 -20 -31 0 -7 -12 -27 -27 -45 -34 -39 -67 -92 -89
-139 -8 -19 -40 -85 -70 -145 -30 -61 -54 -122 -54 -135 0 -14 -14 -52 -30
-85 -17 -33 -30 -73 -30 -89 0 -16 -12 -54 -26 -85 -18 -38 -29 -79 -32 -126
-2 -38 -9 -79 -15 -89 -32 -63 -39 -136 -44 -455 -5 -341 2 -437 38 -541 10
-30 19 -77 19 -104 0 -27 7 -74 16 -105 42 -147 60 -198 77 -217 10 -12 21
-43 26 -70 4 -27 20 -71 34 -98 15 -27 27 -57 27 -66 0 -10 9 -29 20 -43 11
-14 27 -43 34 -64 7 -21 25 -56 40 -77 14 -21 26 -43 26 -49 0 -6 11 -25 25
-43 14 -18 25 -37 25 -42 0 -5 9 -17 21 -28 12 -10 30 -35 40 -54 36 -65 115
-169 172 -226 32 -31 64 -68 72 -83 15 -30 109 -121 124 -121 5 0 43 -33 84
-74 80 -79 142 -126 196 -152 19 -8 41 -24 50 -35 9 -10 32 -30 51 -43 90 -65
155 -106 165 -106 6 0 26 -11 44 -24 19 -14 48 -28 65 -32 17 -3 43 -15 58
-25 14 -11 50 -24 78 -29 29 -6 65 -21 82 -35 16 -14 39 -25 51 -25 11 0 39
-9 61 -19 37 -18 131 -47 226 -71 124 -31 105 -27 304 -65 185 -36 628 -27
754 14 31 11 96 22 143 25 61 3 105 12 148 30 33 14 73 26 87 26 52 0 244 64
276 92 12 10 38 21 59 24 21 4 46 15 55 25 10 11 41 26 71 35 29 8 56 21 60
28 5 7 28 23 53 35 58 28 151 81 187 106 59 41 108 80 116 93 4 6 25 21 46 31
45 23 394 368 416 412 9 16 34 49 57 72 l41 42 676 0 677 0 47 -48 c26 -27 47
-53 47 -58 0 -10 108 -140 158 -189 98 -97 230 -213 257 -227 17 -8 40 -28 53
-44 13 -16 28 -29 34 -29 6 0 25 -12 44 -27 66 -55 90 -70 125 -82 20 -6 44
-20 54 -31 9 -10 30 -22 45 -25 15 -3 37 -17 50 -30 12 -13 38 -26 58 -30 21
-4 48 -17 62 -30 14 -12 41 -25 61 -29 21 -4 48 -15 62 -26 32 -25 232 -90
277 -90 19 0 51 -8 70 -19 46 -24 127 -41 201 -41 33 0 72 -6 87 -14 59 -30
174 -40 432 -40 224 1 269 3 370 23 63 13 140 27 170 32 30 4 82 18 115 29 33
12 78 25 100 29 22 4 62 17 90 30 27 12 70 26 95 32 25 5 63 18 85 29 22 10
60 27 85 39 25 11 52 25 60 31 8 5 31 17 50 25 59 27 101 53 129 78 14 14 37
28 51 32 14 4 34 15 45 25 11 9 36 23 55 30 19 7 60 36 91 64 31 28 80 69 109
91 79 60 386 368 410 412 25 47 62 98 96 138 52 60 135 180 141 204 3 15 12
33 19 41 7 9 23 38 35 65 12 28 27 57 34 65 7 8 18 33 25 54 7 22 22 55 33 74
11 19 24 56 28 83 4 26 17 61 29 77 12 16 25 53 29 84 4 31 15 68 24 82 9 14
22 58 28 98 15 104 29 175 47 238 21 73 24 654 3 740 -12 52 -18 83 -40 225
-5 33 -20 94 -34 135 -14 41 -28 91 -31 111 -3 19 -15 53 -27 75 -11 21 -24
61 -29 87 -13 63 -159 361 -208 423 -34 43 -82 118 -82 128 0 6 -12 22 -27 38
-14 15 -36 43 -47 62 -12 18 -34 53 -50 77 -32 48 -370 389 -386 389 -6 0 -37
25 -70 55 -33 30 -64 55 -69 55 -5 0 -28 16 -51 35 -23 19 -48 35 -55 35 -7 0
-19 7 -26 16 -8 9 -34 25 -59 36 -25 11 -54 27 -65 37 -11 10 -33 22 -49 25
-16 4 -43 18 -59 32 -16 13 -39 24 -51 24 -13 0 -40 14 -61 30 -21 17 -48 30
-60 30 -12 0 -39 11 -59 25 -20 14 -42 25 -49 25 -7 0 -40 13 -75 30 -40 19
-87 32 -130 36 -37 3 -87 16 -112 27 -31 15 -75 23 -145 27 -55 4 -109 11
-120 17 -11 6 -37 13 -57 17 -24 4 -38 13 -38 21 0 13 -399 15 -3140 15 -2667
0 -3140 -2 -3140 -14z m6347 -398 c18 -10 47 -18 65 -18 44 0 218 -34 243 -48
11 -6 47 -18 80 -27 33 -9 67 -20 75 -26 8 -5 31 -16 50 -25 49 -21 306 -151
361 -183 45 -25 58 -34 136 -93 20 -16 42 -28 49 -28 7 0 28 -15 47 -32 18
-18 50 -46 72 -63 52 -41 214 -201 250 -249 17 -21 52 -61 78 -90 26 -28 57
-67 67 -87 10 -19 26 -41 34 -48 9 -8 16 -19 16 -26 0 -7 16 -32 35 -55 19
-23 35 -52 35 -64 0 -12 11 -33 24 -45 14 -13 28 -40 31 -62 4 -22 16 -45 27
-53 11 -8 26 -39 35 -72 8 -32 23 -74 33 -94 9 -19 21 -51 25 -70 4 -19 16
-45 27 -57 14 -15 23 -45 29 -104 6 -52 17 -97 30 -118 13 -22 22 -58 24 -95
2 -34 12 -149 21 -257 17 -185 17 -205 1 -350 -9 -85 -17 -169 -17 -186 0 -18
-9 -59 -19 -90 -11 -32 -27 -94 -36 -138 -9 -44 -25 -98 -35 -120 -11 -22 -24
-63 -30 -92 -6 -28 -18 -57 -26 -64 -8 -6 -21 -35 -30 -64 -8 -30 -21 -59 -29
-65 -8 -6 -19 -28 -26 -48 -6 -20 -20 -46 -30 -57 -10 -12 -24 -36 -30 -55 -7
-19 -23 -48 -36 -63 -12 -16 -23 -35 -23 -42 0 -14 -222 -282 -252 -303 -10
-7 -27 -30 -38 -50 -22 -42 -82 -103 -122 -123 -14 -8 -48 -33 -75 -56 -99
-88 -131 -113 -140 -113 -13 0 -100 -57 -141 -92 -18 -15 -41 -28 -52 -28 -10
0 -31 -11 -47 -24 -16 -14 -43 -28 -59 -32 -16 -3 -38 -15 -49 -24 -11 -10
-49 -26 -85 -35 -36 -10 -78 -26 -95 -35 -16 -10 -61 -25 -100 -34 -38 -10
-75 -22 -81 -27 -6 -5 -53 -16 -105 -25 -52 -9 -113 -25 -136 -35 -27 -12 -65
-19 -110 -19 -37 -1 -115 -5 -173 -10 -156 -14 -562 6 -615 30 -22 10 -67 24
-100 31 -33 6 -70 18 -83 26 -13 8 -56 22 -96 33 -40 10 -88 28 -107 39 -18
11 -53 23 -77 27 -24 4 -56 17 -72 30 -15 13 -37 24 -48 24 -11 0 -39 16 -62
35 -23 19 -48 35 -55 35 -7 0 -19 7 -26 16 -8 9 -33 25 -57 35 -23 10 -45 25
-48 33 -3 8 -19 20 -35 26 -16 7 -29 16 -29 21 0 5 -18 18 -39 29 -78 39 -437
398 -480 478 -21 40 -91 100 -130 113 -20 7 -47 19 -61 28 -22 14 -105 16
-785 16 l-760 0 -40 -22 c-21 -13 -45 -23 -53 -23 -18 0 -112 -89 -112 -107 0
-33 -409 -445 -479 -483 -39 -21 -80 -49 -119 -82 -18 -15 -39 -28 -47 -28 -7
0 -27 -11 -43 -25 -17 -14 -34 -25 -39 -25 -5 0 -22 -13 -37 -29 -16 -17 -44
-32 -64 -36 -21 -4 -47 -16 -60 -28 -13 -12 -50 -27 -84 -34 -33 -7 -68 -19
-78 -28 -9 -8 -49 -24 -88 -34 -40 -10 -78 -23 -85 -29 -6 -6 -55 -20 -107
-32 -52 -11 -117 -27 -145 -35 -86 -24 -422 -35 -665 -22 -118 7 -221 16 -229
21 -19 12 -151 46 -181 46 -14 0 -41 8 -60 18 -19 10 -64 27 -100 36 -36 10
-74 26 -85 36 -11 9 -36 20 -55 24 -19 3 -43 15 -55 25 -11 10 -38 24 -60 31
-22 7 -52 23 -67 36 -15 12 -41 25 -57 29 -15 3 -39 17 -51 31 -13 13 -34 24
-46 24 -13 0 -39 15 -58 33 -69 63 -166 137 -180 137 -19 0 -338 326 -352 360
-8 17 -36 59 -64 92 -27 33 -50 66 -50 73 0 7 -10 26 -23 42 -13 15 -30 44
-37 63 -8 19 -25 50 -37 69 -13 19 -26 46 -30 60 -3 14 -11 33 -19 41 -7 8
-20 35 -30 60 -10 25 -26 56 -35 70 -10 14 -23 52 -29 85 -7 33 -18 70 -26 82
-7 12 -21 54 -30 94 -9 40 -25 86 -35 103 -13 21 -19 50 -19 86 0 31 -7 110
-15 175 -17 138 -19 401 -5 525 6 47 14 126 19 177 4 51 13 99 20 107 18 21
41 113 41 163 0 29 7 50 25 71 13 16 28 47 33 70 5 22 19 53 31 68 11 15 21
34 21 43 0 9 7 27 15 41 13 23 35 64 99 187 11 23 30 52 41 65 29 33 59 78 80
118 10 19 30 46 44 61 14 14 37 41 51 59 34 44 329 340 365 365 15 11 47 37
70 58 23 20 48 37 55 37 17 0 109 61 134 89 11 12 30 21 44 21 13 0 40 14 59
30 19 17 45 30 60 30 14 0 40 13 60 30 20 18 45 30 62 30 15 0 48 11 73 24 24
13 71 31 104 40 32 9 75 23 94 31 19 8 82 23 140 34 58 11 121 23 140 26 103
20 454 22 3325 21 2952 -1 3122 -2 3152 -18z"/>
<path d="M15120 15575 c-14 -8 -36 -20 -50 -26 -36 -18 -170 -151 -170 -169 0
-9 -7 -25 -15 -37 -38 -54 -45 -126 -45 -469 0 -306 -1 -332 -18 -347 -16 -14
-62 -17 -373 -20 -371 -3 -428 -9 -475 -51 -11 -9 -34 -29 -53 -43 -18 -15
-55 -53 -82 -85 -37 -44 -49 -67 -49 -92 0 -18 -7 -41 -15 -52 -19 -25 -20
-165 -1 -202 7 -15 17 -43 21 -62 4 -19 17 -46 30 -60 12 -14 29 -37 36 -51
22 -41 94 -99 151 -121 123 -47 137 -49 476 -47 241 1 326 -2 337 -11 13 -11
15 -64 15 -347 0 -330 6 -408 35 -443 7 -8 16 -28 21 -43 14 -42 84 -123 124
-144 19 -10 46 -28 61 -40 36 -32 125 -47 242 -39 98 6 106 9 206 66 30 17
101 85 101 96 0 4 12 25 27 46 44 65 52 139 53 494 0 292 2 324 18 343 17 20
27 20 362 23 304 3 349 5 380 20 19 10 55 24 80 31 71 21 184 128 195 183 3
18 14 43 24 55 28 37 43 133 31 204 -14 86 -69 192 -135 258 -61 63 -97 85
-149 92 -20 2 -45 9 -57 15 -14 8 -130 12 -365 13 -315 2 -345 3 -361 20 -16
16 -19 50 -24 380 -4 199 -10 376 -14 392 -4 17 -15 39 -25 50 -10 11 -26 36
-35 54 -23 46 -91 109 -140 131 -22 9 -46 25 -54 34 -11 13 -36 16 -155 16
-105 0 -147 -4 -166 -15z"/>
<path d="M20215 15401 c-16 -5 -43 -16 -60 -25 -16 -9 -40 -16 -53 -16 -31 0
-77 -24 -131 -69 -24 -20 -53 -41 -64 -47 -25 -14 -70 -75 -97 -130 -10 -22
-28 -49 -40 -59 -11 -10 -20 -25 -20 -34 0 -9 -7 -44 -16 -76 -31 -122 -17
-310 31 -395 8 -14 25 -47 38 -75 30 -61 147 -178 202 -201 22 -9 50 -25 64
-35 13 -11 40 -19 60 -19 20 0 53 -8 73 -18 45 -23 202 -22 272 2 26 9 57 16
70 16 13 0 31 9 42 21 10 11 32 26 49 34 43 17 118 75 138 105 37 55 67 96 91
126 15 18 26 44 26 61 0 15 10 46 22 68 20 35 22 54 22 160 0 106 -3 124 -22
155 -12 19 -22 49 -22 65 0 40 -67 147 -132 213 -66 65 -173 132 -213 132 -16
0 -46 10 -65 22 -29 18 -52 22 -135 24 -55 2 -113 -1 -130 -5z"/>
<path d="M21689 13976 c-3 -3 -41 -11 -84 -16 -56 -7 -85 -16 -100 -30 -12
-12 -38 -25 -57 -30 -35 -10 -178 -135 -178 -156 0 -6 -13 -28 -30 -49 -16
-20 -32 -46 -36 -58 -3 -12 -17 -46 -31 -75 -23 -51 -24 -61 -21 -210 3 -149
4 -160 32 -217 16 -33 42 -75 57 -93 16 -18 29 -37 29 -42 0 -17 70 -88 108
-111 21 -12 48 -32 62 -44 14 -13 41 -25 61 -29 21 -4 50 -16 65 -29 26 -20
39 -22 173 -22 141 0 148 1 196 28 27 15 62 27 76 27 15 0 33 7 40 16 8 9 30
27 49 39 93 59 192 193 235 317 13 38 16 77 13 190 -3 147 -13 184 -71 284
-58 101 -172 219 -225 234 -19 5 -45 18 -57 30 -15 14 -46 24 -101 31 -109 15
-198 22 -205 15z"/>
<path d="M12457 10212 c-16 -17 -17 -83 -17 -738 0 -395 0 -727 0 -736 0 -16
11 -18 90 -18 79 0 90 2 91 18 0 9 0 148 -1 308 -1 264 0 292 16 305 11 9 47
15 103 17 101 4 123 -7 172 -92 17 -28 42 -70 57 -93 154 -240 272 -436 272
-450 0 -10 25 -13 110 -13 110 0 110 0 110 24 0 14 -4 28 -10 31 -9 5 -28 35
-115 170 -18 28 -41 63 -51 79 -10 16 -23 36 -29 44 -5 9 -23 37 -40 62 -16
26 -41 66 -55 89 -14 23 -44 69 -67 102 -24 32 -43 66 -43 74 0 8 21 23 48 35
94 42 202 171 220 266 27 137 5 284 -54 361 -20 26 -44 52 -53 57 -9 5 -25 17
-36 27 -12 10 -69 34 -128 54 l-108 35 -233 0 c-213 0 -234 -2 -249 -18z m478
-155 c79 -19 136 -59 174 -122 33 -53 33 -57 29 -143 -3 -77 -8 -95 -33 -136
-32 -51 -98 -97 -161 -115 -22 -6 -94 -11 -160 -11 -177 0 -165 -21 -162 275
l3 239 25 13 c32 16 218 16 285 0z"/>
<path d="M17725 10219 c-95 -31 -172 -84 -231 -159 -25 -31 -35 -59 -48 -132
-17 -90 -17 -95 3 -177 11 -46 27 -93 36 -105 8 -11 25 -35 38 -53 12 -18 38
-41 58 -52 20 -12 42 -27 49 -36 6 -8 27 -17 45 -21 19 -3 41 -14 51 -25 9
-10 38 -25 65 -34 27 -9 51 -21 54 -25 3 -5 26 -18 50 -29 97 -43 151 -105
176 -204 10 -40 8 -54 -10 -110 -23 -69 -39 -88 -115 -136 -47 -29 -56 -31
-143 -31 -87 0 -99 3 -169 36 -41 19 -90 38 -109 41 l-33 5 -21 -67 c-12 -38
-19 -77 -15 -87 7 -23 83 -58 126 -58 21 0 31 -6 35 -20 5 -19 14 -20 164 -20
150 0 159 1 159 19 0 11 8 22 18 24 9 3 38 10 64 17 33 9 65 29 115 75 57 52
74 75 97 133 27 65 28 78 24 164 -7 112 -42 199 -110 266 -45 46 -143 112
-165 112 -7 0 -37 13 -66 29 -28 16 -62 32 -74 36 -46 13 -132 73 -171 118
-33 38 -41 55 -47 104 -13 112 17 170 120 234 38 24 197 27 250 5 18 -8 43
-12 55 -9 12 3 28 -2 40 -12 29 -27 53 -15 65 32 5 23 13 45 18 49 26 26 -18
74 -70 74 -15 0 -39 9 -53 20 -22 17 -41 19 -160 19 -74 0 -148 -5 -165 -10z"/>
<path d="M21404 10196 c-48 -48 -48 -100 0 -150 27 -30 40 -36 74 -36 34 0 45
6 76 40 24 27 36 50 36 70 0 20 -12 43 -36 70 -31 34 -42 40 -76 40 -32 0 -47
-7 -74 -34z"/>
<path d="M14874 10085 c-10 -8 -37 -20 -59 -26 -62 -17 -63 -20 -57 -117 5
-101 2 -107 -73 -121 -26 -5 -51 -14 -54 -20 -4 -6 -6 -34 -5 -63 3 -58 20
-78 64 -78 14 0 36 -7 48 -16 22 -15 22 -16 22 -327 0 -224 4 -328 14 -368 15
-65 68 -138 128 -175 21 -14 38 -31 38 -39 0 -13 24 -15 155 -15 123 0 155 3
155 13 0 8 9 22 21 33 35 32 40 50 28 101 -16 65 -22 69 -62 44 -41 -25 -152
-29 -195 -7 -40 21 -81 68 -92 105 -15 52 -15 618 0 636 10 12 38 15 139 15
85 0 131 4 139 12 16 16 16 120 0 136 -8 8 -53 12 -135 12 -161 0 -162 1 -155
133 2 52 2 107 -2 121 -7 30 -32 34 -62 11z"/>
<path d="M18650 10080 c-19 -10 -50 -24 -68 -31 l-33 -12 2 -88 c3 -100 -4
-115 -60 -125 -67 -12 -72 -18 -69 -87 l3 -62 55 -13 c30 -8 59 -17 63 -21 4
-4 9 -154 10 -332 2 -258 6 -335 18 -375 17 -56 70 -126 120 -156 17 -10 33
-28 36 -39 5 -18 15 -19 164 -19 132 0 159 2 159 15 0 8 11 25 25 39 27 27 30
51 15 108 -14 49 -24 54 -59 29 -23 -17 -44 -21 -106 -21 l-76 0 -51 48 c-65
62 -67 72 -67 424 -1 264 0 278 18 288 11 5 73 10 138 10 65 0 124 4 132 9 9
6 15 29 15 63 2 89 4 88 -142 88 -70 0 -134 5 -142 10 -12 7 -16 38 -20 137
-5 119 -6 128 -25 130 -11 0 -36 -7 -55 -17z"/>
<path d="M20585 10080 c-16 -11 -37 -20 -45 -20 -8 0 -26 -6 -40 -13 -24 -12
-25 -15 -22 -103 4 -102 -1 -111 -65 -121 -56 -9 -63 -18 -63 -84 0 -63 13
-79 62 -79 13 0 34 -7 46 -16 22 -15 22 -16 22 -322 0 -366 6 -406 69 -481 23
-28 55 -56 69 -63 15 -7 31 -23 37 -36 9 -21 14 -22 162 -22 122 0 153 3 153
13 0 8 9 22 21 33 35 32 40 50 28 101 -16 65 -22 69 -62 44 -26 -16 -50 -21
-104 -21 -61 0 -75 4 -109 29 -80 57 -78 49 -84 391 -4 239 -3 310 7 328 13
21 19 22 142 22 99 0 131 3 140 14 7 9 11 40 9 78 l-3 63 -137 5 c-92 3 -141
9 -150 18 -9 9 -13 50 -13 135 0 114 -1 122 -20 125 -11 1 -33 -7 -50 -18z"/>
<path d="M13885 9802 c-16 -10 -51 -24 -77 -31 -37 -11 -64 -30 -125 -90 -93
-92 -115 -122 -132 -181 -7 -25 -17 -50 -21 -55 -5 -6 -14 -51 -20 -100 -13
-101 -3 -189 33 -290 44 -128 155 -245 269 -285 30 -10 54 -25 56 -34 3 -14
26 -16 163 -16 132 0 159 2 159 14 0 20 11 26 83 42 63 15 107 45 107 73 0 19
-30 101 -43 118 -7 10 -29 2 -91 -30 -78 -41 -85 -42 -188 -45 -104 -4 -109
-3 -173 29 -89 43 -152 117 -171 197 -19 80 -18 109 5 122 13 6 150 10 378 10
288 0 363 3 378 14 47 34 22 262 -40 351 -53 78 -129 136 -222 173 -74 29 -92
32 -190 32 -86 0 -114 -4 -138 -18z m301 -182 c71 -49 120 -118 128 -182 5
-37 3 -55 -7 -65 -11 -11 -70 -14 -297 -14 -333 0 -324 -2 -297 85 21 66 71
128 135 169 71 45 80 47 187 44 96 -3 102 -4 151 -37z"/>
<path d="M15592 9807 c-10 -11 -16 -577 -12 -1064 0 -22 3 -23 90 -23 l89 0 3
373 3 372 37 55 c20 30 58 73 84 95 47 39 51 40 124 40 41 0 90 -4 107 -8 36
-9 30 -16 78 100 27 64 14 73 -102 73 -86 0 -101 -3 -168 -34 -54 -25 -78 -42
-89 -65 -12 -22 -24 -31 -41 -31 -27 0 -33 14 -37 85 l-3 40 -76 3 c-55 2 -79
-1 -87 -11z"/>
<path d="M16656 9804 c-21 -8 -44 -18 -50 -23 -6 -4 -22 -11 -36 -14 -36 -9
-125 -90 -169 -156 -72 -106 -110 -282 -90 -414 6 -40 22 -110 36 -156 21 -72
34 -93 87 -155 34 -39 80 -80 102 -90 21 -10 54 -26 72 -34 17 -8 32 -21 32
-29 0 -10 32 -13 154 -13 151 0 155 0 158 22 2 17 14 25 57 35 95 25 167 102
233 254 30 70 32 82 36 225 l4 150 -35 102 c-51 146 -133 238 -234 264 -26 7
-59 20 -72 30 -20 15 -43 18 -135 17 -70 0 -126 -6 -150 -15z m262 -161 c20
-10 58 -38 83 -63 95 -91 127 -292 74 -459 -31 -98 -73 -154 -145 -198 -51
-30 -62 -33 -138 -33 -79 0 -88 2 -141 35 -106 66 -153 173 -154 350 0 164 47
271 153 346 54 38 57 39 143 39 64 0 99 -5 125 -17z"/>
<path d="M19494 9801 c-17 -10 -56 -26 -87 -35 -56 -16 -87 -44 -87 -77 0 -35
39 -109 57 -109 10 0 54 18 98 40 76 38 85 40 175 40 91 0 98 -2 145 -33 54
-35 104 -111 105 -158 0 -45 -22 -54 -154 -57 -67 -2 -139 -10 -161 -17 -103
-36 -150 -56 -170 -75 -12 -11 -26 -20 -31 -20 -11 0 -88 -80 -102 -106 -13
-25 -42 -140 -42 -168 0 -12 10 -51 21 -87 22 -67 79 -138 129 -162 14 -7 29
-22 35 -35 9 -21 15 -22 135 -22 120 0 126 1 135 22 7 15 26 27 57 36 35 10
57 24 80 53 41 52 66 51 115 -4 21 -24 50 -52 66 -61 15 -10 27 -25 27 -32 0
-10 15 -14 59 -14 57 0 59 1 64 30 8 36 4 47 -42 125 l-36 60 -5 300 -5 300
-28 70 c-40 96 -128 175 -198 175 -11 0 -32 9 -46 20 -23 18 -41 20 -152 20
-106 0 -131 -3 -157 -19z m390 -564 c16 -11 18 -25 15 -93 -4 -68 -8 -85 -34
-124 -17 -25 -58 -64 -94 -87 -62 -42 -64 -43 -148 -43 -46 0 -94 5 -106 11
-41 21 -77 63 -88 101 -21 82 28 155 145 217 56 30 64 31 175 31 81 0 123 -4
135 -13z"/>
<path d="M21238 9810 c-12 -8 -16 -24 -16 -64 0 -30 4 -59 8 -66 4 -7 35 -15
70 -19 35 -4 66 -14 71 -22 5 -8 9 -197 9 -449 -1 -239 -1 -443 0 -452 0 -16
11 -18 90 -18 l90 0 0 538 c0 405 -3 541 -12 550 -15 15 -285 16 -310 2z"/>
<path d="M22100 9785 c-172 -71 -269 -210 -300 -431 -11 -77 -11 -101 3 -179
9 -49 23 -114 31 -143 27 -96 143 -226 224 -252 30 -10 51 -23 57 -37 9 -22
14 -23 160 -23 145 0 151 1 160 22 10 21 26 29 86 42 15 3 46 22 69 41 64 54
83 82 146 222 26 57 36 145 31 268 -4 97 -10 134 -31 194 -39 107 -50 125
-116 190 -54 52 -107 81 -150 81 -6 0 -23 9 -37 20 -22 17 -41 20 -137 20
-104 0 -117 -3 -196 -35z m326 -155 c108 -61 159 -172 159 -345 0 -172 -56
-294 -164 -359 -55 -34 -63 -36 -146 -36 -84 0 -90 2 -141 35 -78 52 -114 111
-136 220 -22 114 -22 149 1 261 22 107 57 161 140 217 53 36 57 37 145 37 82
0 96 -3 142 -30z"/>
<path d="M22992 9811 c-10 -6 -13 -114 -13 -534 0 -290 1 -534 1 -542 0 -12
17 -15 90 -15 l90 0 0 399 c0 467 -7 437 118 503 67 35 80 38 151 38 71 0 82
-3 120 -31 29 -20 51 -49 69 -87 l27 -57 3 -382 3 -383 83 0 c72 0 84 3 87 18
2 9 2 204 -1 432 l-5 415 -27 51 c-42 79 -73 110 -151 148 -68 34 -78 36 -173
36 -83 0 -106 -3 -125 -18 -13 -11 -39 -24 -57 -30 -19 -6 -47 -23 -64 -37
-45 -38 -79 -31 -96 19 -7 22 -18 46 -24 53 -12 14 -85 17 -106 4z"/>
</g>
</svg>
